# 3ds Max Wavefront OBJ Exporter v0.97b - (c)2007 guruware
# File Created: 09.04.2019 11:08:56

mtllib dubloon_with_normal.mtl

#
# object Cylinder001
#

v  6.4853 7.2919 -0.1302
v  4.6310 5.0682 -0.1302
v  1.0319 3.5459 -0.1302
v  -2.9454 4.2763 -0.1302
v  -6.0082 6.1598 -0.1302
v  -8.0299 9.3674 -0.1302
v  -7.8456 14.8908 -0.1302
v  -6.4003 17.1871 -0.1302
v  -3.2461 18.9328 -0.1302
v  1.0025 19.0003 -0.1302
v  4.7196 18.0071 -0.1302
v  6.7516 15.3876 -0.1302
v  7.2292 11.3675 -0.1302
v  10.3021 11.2717 -0.0000
v  9.6709 16.5842 0.0000
v  9.6709 16.5842 1.0779
v  10.3021 11.2717 1.0779
v  6.4939 20.6797 0.0000
v  6.4939 20.6797 1.0779
v  1.3779 22.0467 0.0000
v  1.3779 22.0467 1.0779
v  -4.0537 21.9604 0.0000
v  -4.0537 21.9604 1.0779
v  -8.5567 19.4683 0.0000
v  -8.5567 19.4683 1.0779
v  -10.8566 15.8141 0.0000
v  -10.8566 15.8141 1.0779
v  -11.0994 8.5360 -0.0000
v  -11.0994 8.5360 1.0779
v  -8.2030 3.9407 -0.0000
v  -8.2030 3.9407 1.0779
v  -4.0537 1.3889 -0.0000
v  -4.0537 1.3889 1.0779
v  1.3779 0.3915 -0.0000
v  1.3779 0.3915 1.0779
v  6.4939 2.5553 -0.0000
v  6.4939 2.5553 1.0779
v  9.3323 5.9592 -0.0000
v  9.3323 5.9592 1.0779
v  6.4853 7.2919 1.2081
v  7.2292 11.3675 1.2081
v  6.7516 15.3876 1.2081
v  4.7196 18.0071 1.2081
v  1.0025 19.0003 1.2081
v  -3.2461 18.9328 1.2081
v  -6.4003 17.1871 1.2081
v  -7.8456 14.8908 1.2081
v  -8.0299 9.3674 1.2081
v  -6.0082 6.1598 1.2081
v  -2.9454 4.2763 1.2081
v  1.0319 3.5459 1.2081
v  4.6310 5.0682 1.2081
v  9.2902 16.4282 1.3419
v  9.9014 11.2842 1.3419
v  6.2625 20.3312 1.3419
v  1.3290 21.6495 1.3419
v  -3.9484 21.5657 1.3419
v  -8.2755 19.1709 1.3419
v  -10.4640 15.6937 1.3419
v  -10.6992 8.6444 1.3419
v  -7.9168 4.2300 1.3419
v  -3.9092 1.7654 1.3419
v  1.3328 0.8028 1.3419
v  6.2510 2.8829 1.3419
v  8.9611 6.1330 1.3419
v  9.9014 11.2842 -0.2640
v  9.2902 16.4282 -0.2640
v  8.9611 6.1330 -0.2640
v  6.2510 2.8829 -0.2640
v  1.3328 0.8028 -0.2640
v  -3.9092 1.7654 -0.2640
v  -7.9168 4.2300 -0.2640
v  -10.6992 8.6444 -0.2640
v  -10.4640 15.6937 -0.2640
v  -8.2755 19.1709 -0.2640
v  -3.9484 21.5657 -0.2640
v  1.3290 21.6495 -0.2640
v  6.2625 20.3312 -0.2640
v  8.9096 16.2722 1.0769
v  9.5007 11.2967 1.0769
v  6.0312 19.9828 1.0769
v  1.2800 21.2523 1.0769
v  -3.8431 21.1709 1.0769
v  -7.9943 18.8735 1.0769
v  -10.0714 15.5733 1.0769
v  -10.2990 8.7528 1.0769
v  -7.6306 4.5194 1.0769
v  -3.7647 2.1418 1.0769
v  1.2877 1.2141 1.0769
v  6.0081 3.2106 1.0769
v  8.5899 6.3067 1.0769
v  9.5007 11.2967 0.0010
v  8.9096 16.2722 0.0010
v  8.5899 6.3067 0.0010
v  6.0081 3.2106 0.0010
v  1.2877 1.2141 0.0010
v  -3.7647 2.1418 0.0010
v  -7.6306 4.5194 0.0010
v  -10.2990 8.7528 0.0010
v  -10.0714 15.5733 0.0010
v  -7.9943 18.8735 0.0010
v  -3.8431 21.1709 0.0010
v  1.2800 21.2523 0.0010
v  6.0312 19.9828 0.0010
v  7.5129 15.6997 1.0769
v  8.0305 11.3425 1.0769
v  5.1823 18.7040 1.0769
v  1.1004 19.7947 1.0769
v  -3.4567 19.7223 1.0769
v  -6.9626 17.7820 1.0769
v  -8.6308 15.1315 1.0769
v  -8.8303 9.1506 1.0769
v  -6.5805 5.5811 1.0769
v  -3.2344 3.5233 1.0769
v  1.1221 2.7234 1.0769
v  5.1168 4.4129 1.0769
v  7.2277 6.9444 1.0769
v  8.0305 11.3425 0.0010
v  7.5129 15.6997 0.0010
v  7.2277 6.9444 0.0010
v  5.1168 4.4129 0.0010
v  1.1221 2.7234 0.0010
v  -3.2344 3.5233 0.0010
v  -6.5805 5.5811 0.0010
v  -8.8303 9.1506 0.0010
v  -8.6308 15.1315 0.0010
v  -6.9626 17.7820 0.0010
v  -3.4567 19.7223 0.0010
v  1.1004 19.7947 0.0010
v  5.1823 18.7040 0.0010
v  7.1322 15.5436 1.3408
v  7.6299 11.3550 1.3408
v  4.9509 18.3556 1.3408
v  1.0515 19.3975 1.3408
v  -3.3514 19.3276 1.3408
v  -6.6815 17.4846 1.3408
v  -8.2382 15.0112 1.3408
v  -8.4301 9.2590 1.3408
v  -6.2943 5.8705 1.3408
v  -3.0899 3.8998 1.3408
v  1.0770 3.1347 1.3408
v  4.8739 4.7405 1.3408
v  6.8565 7.1181 1.3408
v  7.6299 11.3550 -0.2629
v  7.1322 15.5436 -0.2629
v  6.8565 7.1181 -0.2629
v  4.8739 4.7405 -0.2629
v  1.0770 3.1347 -0.2629
v  -3.0899 3.8998 -0.2629
v  -6.2943 5.8705 -0.2629
v  -8.4301 9.2590 -0.2629
v  -8.2382 15.0112 -0.2629
v  -6.6815 17.4846 -0.2629
v  -3.3514 19.3276 -0.2629
v  1.0515 19.3975 -0.2629
v  4.9509 18.3556 -0.2629
# 156 vertices

vn -0.1637 0.0766 -0.9835
vn -0.1070 0.1443 -0.9837
vn -0.0199 0.1812 -0.9832
vn 0.0632 0.1647 -0.9843
vn 0.1260 0.1274 -0.9838
vn 0.1763 0.0477 -0.9832
vn 0.1731 -0.0531 -0.9835
vn 0.1239 -0.1311 -0.9836
vn 0.0464 -0.1740 -0.9837
vn -0.0212 -0.1718 -0.9849
vn -0.1016 -0.1530 -0.9830
vn -0.1678 -0.0688 -0.9834
vn -0.1738 0.0054 -0.9848
vn 0.8893 -0.0277 -0.4565
vn 0.8272 0.3391 -0.4481
vn 0.8272 0.3391 0.4481
vn 0.8893 -0.0277 0.4565
vn 0.4952 0.7459 -0.4455
vn 0.4952 0.7459 0.4455
vn 0.1088 0.8826 -0.4574
vn 0.1088 0.8826 0.4574
vn -0.2302 0.8630 -0.4496
vn -0.2302 0.8630 0.4496
vn -0.6137 0.6493 -0.4492
vn -0.6137 0.6493 0.4492
vn -0.8545 0.2621 -0.4485
vn -0.8545 0.2621 0.4485
vn -0.8635 -0.2339 -0.4467
vn -0.8635 -0.2339 0.4467
vn -0.6278 -0.6347 -0.4506
vn -0.6278 -0.6347 0.4506
vn -0.3193 -0.8320 -0.4537
vn -0.3193 -0.8320 0.4537
vn 0.0975 -0.8892 -0.4471
vn 0.0975 -0.8892 0.4471
vn 0.5318 -0.7174 -0.4501
vn 0.5318 -0.7174 0.4501
vn 0.8093 -0.3788 -0.4489
vn 0.8093 -0.3788 0.4489
vn -0.1637 0.0766 0.9835
vn -0.1738 0.0054 0.9848
vn -0.1678 -0.0688 0.9834
vn -0.1016 -0.1530 0.9830
vn -0.0212 -0.1718 0.9849
vn 0.0464 -0.1740 0.9837
vn 0.1239 -0.1311 0.9836
vn 0.1731 -0.0531 0.9835
vn 0.1763 0.0477 0.9832
vn 0.1260 0.1274 0.9838
vn 0.0632 0.1647 0.9843
vn -0.0199 0.1812 0.9832
vn -0.1070 0.1443 0.9837
vn 0.0848 0.0348 0.9958
vn 0.0514 -0.0016 0.9987
vn 0.0600 0.0904 0.9941
vn 0.0058 0.0473 0.9989
vn -0.0215 0.0805 0.9965
vn -0.0588 0.0622 0.9963
vn -0.0856 0.0263 0.9960
vn -0.0967 -0.0262 0.9950
vn -0.0548 -0.0554 0.9970
vn -0.0227 -0.0592 0.9980
vn 0.0107 -0.0974 0.9952
vn 0.0482 -0.0651 0.9967
vn 0.0791 -0.0370 0.9962
vn 0.0514 -0.0016 -0.9987
vn 0.0848 0.0348 -0.9958
vn 0.0791 -0.0370 -0.9962
vn 0.0482 -0.0651 -0.9967
vn 0.0107 -0.0974 -0.9952
vn -0.0227 -0.0592 -0.9980
vn -0.0548 -0.0554 -0.9970
vn -0.0967 -0.0262 -0.9950
vn -0.0856 0.0263 -0.9960
vn -0.0588 0.0622 -0.9963
vn -0.0215 0.0805 -0.9965
vn 0.0058 0.0473 -0.9989
vn 0.0600 0.0904 -0.9941
vn -0.3014 -0.1235 0.9455
vn -0.3125 0.0097 0.9499
vn -0.1825 -0.2749 0.9440
vn -0.0381 -0.3089 0.9503
vn 0.0833 -0.3124 0.9463
vn 0.2226 -0.2354 0.9461
vn 0.3108 -0.0953 0.9457
vn 0.3165 0.0857 0.9447
vn 0.2262 0.2287 0.9468
vn 0.1136 0.2959 0.9484
vn -0.0357 0.3254 0.9449
vn -0.1921 0.2592 0.9465
vn -0.2939 0.1376 0.9459
vn -0.3125 0.0097 -0.9499
vn -0.3014 -0.1235 -0.9455
vn -0.2939 0.1376 -0.9459
vn -0.1921 0.2592 -0.9465
vn -0.0357 0.3254 -0.9449
vn 0.1136 0.2959 -0.9484
vn 0.2262 0.2287 -0.9468
vn 0.3165 0.0857 -0.9447
vn 0.3108 -0.0953 -0.9457
vn 0.2226 -0.2354 -0.9461
vn 0.0833 -0.3124 -0.9463
vn -0.0381 -0.3089 -0.9503
vn -0.1825 -0.2749 -0.9440
vn 0.2180 0.0894 0.9718
vn 0.2615 -0.0081 0.9652
vn 0.1235 0.1860 0.9748
vn 0.0323 0.2618 0.9646
vn -0.0622 0.2332 0.9704
vn -0.1648 0.1743 0.9708
vn -0.2267 0.0695 0.9715
vn -0.2215 -0.0600 0.9733
vn -0.1722 -0.1742 0.9695
vn -0.0911 -0.2374 0.9671
vn 0.0252 -0.2297 0.9729
vn 0.1447 -0.1951 0.9700
vn 0.2161 -0.1012 0.9711
vn 0.2615 -0.0081 -0.9652
vn 0.2180 0.0894 -0.9718
vn 0.2161 -0.1012 -0.9711
vn 0.1447 -0.1951 -0.9700
vn 0.0252 -0.2297 -0.9729
vn -0.0911 -0.2374 -0.9671
vn -0.1722 -0.1742 -0.9695
vn -0.2215 -0.0600 -0.9733
vn -0.2267 0.0695 -0.9715
vn -0.1648 0.1743 -0.9708
vn -0.0622 0.2332 -0.9704
vn 0.0323 0.2618 -0.9646
vn 0.1235 0.1860 -0.9748
vn 0.1846 0.0757 0.9799
vn 0.1710 -0.0053 0.9853
vn 0.1166 0.1756 0.9775
vn 0.0206 0.1671 0.9857
vn -0.0499 0.1872 0.9811
vn -0.1342 0.1419 0.9807
vn -0.1893 0.0581 0.9802
vn -0.1981 -0.0537 0.9787
vn -0.1336 -0.1351 0.9818
vn -0.0644 -0.1678 0.9837
vn 0.0222 -0.2026 0.9790
vn 0.1144 -0.1544 0.9814
vn 0.1780 -0.0833 0.9805
vn 0.1710 -0.0053 -0.9853
vn 0.1846 0.0757 -0.9799
vn 0.1780 -0.0833 -0.9805
vn 0.1144 -0.1544 -0.9814
vn 0.0222 -0.2026 -0.9790
vn -0.0644 -0.1678 -0.9837
vn -0.1336 -0.1351 -0.9818
vn -0.1981 -0.0537 -0.9787
vn -0.1893 0.0581 -0.9802
vn -0.1342 0.1419 -0.9807
vn -0.0499 0.1872 -0.9811
vn 0.0206 0.1671 -0.9857
vn 0.1166 0.1756 -0.9775
# 156 vertex normals

vt 0.8789 0.2802 0.0833
vt 0.7769 0.1653 0.0833
vt 0.5787 0.0867 0.0833
vt 0.3598 0.1244 0.0833
vt 0.1912 0.2217 0.0833
vt 0.0799 0.3873 0.0833
vt 0.0901 0.6726 0.0833
vt 0.1696 0.7912 0.0833
vt 0.3433 0.8813 0.0833
vt 0.5771 0.8848 0.0833
vt 0.7817 0.8335 0.0833
vt 0.8936 0.6982 0.0833
vt 0.9199 0.4906 0.0833
vt 1.0890 0.4857 0.1644
vt 1.0543 0.7600 0.1644
vt 1.0543 0.7600 0.8356
vt 1.0890 0.4857 0.8356
vt 0.8794 0.9715 0.1644
vt 0.8794 0.9715 0.8356
vt 0.5978 1.0421 0.1644
vt 0.5978 1.0421 0.8356
vt 0.2988 1.0377 0.1644
vt 0.2988 1.0377 0.8356
vt 0.0509 0.9090 0.1644
vt 0.0509 0.9090 0.8356
vt -0.0757 0.7203 0.1644
vt -0.0757 0.7203 0.8356
vt -0.0890 0.3444 0.1644
vt -0.0890 0.3444 0.8356
vt 0.0704 0.1071 0.1644
vt 0.0704 0.1071 0.8356
vt 0.2988 -0.0247 0.1644
vt 0.2988 -0.0247 0.8356
vt 0.5978 -0.0762 0.1644
vt 0.5978 -0.0762 0.8356
vt 0.8794 0.0355 0.1644
vt 0.8794 0.0355 0.8356
vt 1.0357 0.2113 0.1644
vt 1.0357 0.2113 0.8356
vt 0.8789 0.2802 0.9167
vt 0.9199 0.4906 0.9167
vt 0.8936 0.6982 0.9167
vt 0.7817 0.8335 0.9167
vt 0.5771 0.8848 0.9167
vt 0.3433 0.8813 0.9167
vt 0.1696 0.7912 0.9167
vt 0.0901 0.6726 0.9167
vt 0.0799 0.3873 0.9167
vt 0.1912 0.2217 0.9167
vt 0.3598 0.1244 0.9167
vt 0.5787 0.0867 0.9167
vt 0.7769 0.1653 0.9167
vt 1.0333 0.7520 1.0000
vt 1.0670 0.4863 1.0000
vt 0.8667 0.9535 1.0000
vt 0.5951 1.0216 1.0000
vt 0.3046 1.0173 1.0000
vt 0.0664 0.8936 1.0000
vt -0.0541 0.7141 1.0000
vt -0.0670 0.3500 1.0000
vt 0.0862 0.1220 1.0000
vt 0.3068 -0.0053 1.0000
vt 0.5953 -0.0550 1.0000
vt 0.8660 0.0525 1.0000
vt 1.0152 0.2203 1.0000
vt 1.0670 0.4863 0.0000
vt 1.0333 0.7520 0.0000
vt 1.0152 0.2203 0.0000
vt 0.8660 0.0525 0.0000
vt 0.5953 -0.0550 0.0000
vt 0.3068 -0.0053 0.0000
vt 0.0862 0.1220 0.0000
vt -0.0670 0.3500 0.0000
vt -0.0541 0.7141 0.0000
vt 0.0664 0.8936 0.0000
vt 0.3046 1.0173 0.0000
vt 0.5951 1.0216 0.0000
vt 0.8667 0.9535 0.0000
vt 1.0124 0.7439 0.8350
vt 1.0449 0.4870 0.8350
vt 0.8539 0.9356 0.8350
vt 0.5924 1.0011 0.8350
vt 0.3104 0.9969 0.8350
vt 0.0819 0.8783 0.8350
vt -0.0325 0.7078 0.8350
vt -0.0450 0.3556 0.8350
vt 0.1019 0.1370 0.8350
vt 0.3147 0.0142 0.8350
vt 0.5928 -0.0337 0.8350
vt 0.8527 0.0694 0.8350
vt 0.9948 0.2293 0.8350
vt 1.0449 0.4870 0.1650
vt 1.0124 0.7439 0.1650
vt 0.9948 0.2293 0.1650
vt 0.8527 0.0694 0.1650
vt 0.5928 -0.0337 0.1650
vt 0.3147 0.0142 0.1650
vt 0.1019 0.1370 0.1650
vt -0.0450 0.3556 0.1650
vt -0.0325 0.7078 0.1650
vt 0.0819 0.8783 0.1650
vt 0.3104 0.9969 0.1650
vt 0.5924 1.0011 0.1650
vt 0.8539 0.9356 0.1650
vt 0.9355 0.7144 0.8350
vt 0.9640 0.4893 0.8350
vt 0.8072 0.8695 0.8350
vt 0.5825 0.9258 0.8350
vt 0.3317 0.9221 0.8350
vt 0.1387 0.8219 0.8350
vt 0.0469 0.6850 0.8350
vt 0.0359 0.3761 0.8350
vt 0.1597 0.1918 0.8350
vt 0.3439 0.0855 0.8350
vt 0.5837 0.0442 0.8350
vt 0.8036 0.1315 0.8350
vt 0.9198 0.2622 0.8350
vt 0.9640 0.4893 0.1650
vt 0.9355 0.7144 0.1650
vt 0.9198 0.2622 0.1650
vt 0.8036 0.1315 0.1650
vt 0.5837 0.0442 0.1650
vt 0.3439 0.0855 0.1650
vt 0.1597 0.1918 0.1650
vt 0.0359 0.3761 0.1650
vt 0.0469 0.6850 0.1650
vt 0.1387 0.8219 0.1650
vt 0.3317 0.9221 0.1650
vt 0.5825 0.9258 0.1650
vt 0.8072 0.8695 0.1650
vt 0.9146 0.7063 0.9993
vt 0.9419 0.4900 0.9993
vt 0.7945 0.8515 0.9993
vt 0.5798 0.9053 0.9993
vt 0.3375 0.9017 0.9993
vt 0.1542 0.8065 0.9993
vt 0.0685 0.6788 0.9993
vt 0.0579 0.3817 0.9993
vt 0.1755 0.2068 0.9993
vt 0.3519 0.1050 0.9993
vt 0.5812 0.0655 0.9993
vt 0.7902 0.1484 0.9993
vt 0.8994 0.2712 0.9993
vt 0.9419 0.4900 0.0007
vt 0.9146 0.7063 0.0007
vt 0.8994 0.2712 0.0007
vt 0.7902 0.1484 0.0007
vt 0.5812 0.0655 0.0007
vt 0.3519 0.1050 0.0007
vt 0.1755 0.2068 0.0007
vt 0.0579 0.3817 0.0007
vt 0.0685 0.6788 0.0007
vt 0.1542 0.8065 0.0007
vt 0.3375 0.9017 0.0007
vt 0.5798 0.9053 0.0007
vt 0.7945 0.8515 0.0007
# 156 texture coords

o Cylinder001
g Cylinder001
usemtl 03___Default
s 1
f 1/1/1 2/2/2 3/3/3 4/4/4 5/5/5 6/6/6 7/7/7 8/8/8 9/9/9 10/10/10 11/11/11 12/12/12 13/13/13 
s 8
f 14/14/14 15/15/15 16/16/16 17/17/17 
f 15/15/15 18/18/18 19/19/19 16/16/16 
f 18/18/18 20/20/20 21/21/21 19/19/19 
f 20/20/20 22/22/22 23/23/23 21/21/21 
f 22/22/22 24/24/24 25/25/25 23/23/23 
f 24/24/24 26/26/26 27/27/27 25/25/25 
f 26/26/26 28/28/28 29/29/29 27/27/27 
f 28/28/28 30/30/30 31/31/31 29/29/29 
f 30/30/30 32/32/32 33/33/33 31/31/31 
f 32/32/32 34/34/34 35/35/35 33/33/33 
f 34/34/34 36/36/36 37/37/37 35/35/35 
f 36/36/36 38/38/38 39/39/39 37/37/37 
f 38/38/38 14/14/14 17/17/17 39/39/39 
s 1
f 40/40/40 41/41/41 42/42/42 43/43/43 44/44/44 45/45/45 46/46/46 47/47/47 48/48/48 49/49/49 50/50/50 51/51/51 52/52/52 
s off
f 17/17/17 16/16/16 53/53/53 54/54/54 
f 16/16/16 19/19/19 55/55/55 53/53/53 
f 19/19/19 21/21/21 56/56/56 55/55/55 
f 21/21/21 23/23/23 57/57/57 56/56/56 
f 23/23/23 25/25/25 58/58/58 57/57/57 
f 25/25/25 27/27/27 59/59/59 58/58/58 
f 27/27/27 29/29/29 60/60/60 59/59/59 
f 29/29/29 31/31/31 61/61/61 60/60/60 
f 31/31/31 33/33/33 62/62/62 61/61/61 
f 33/33/33 35/35/35 63/63/63 62/62/62 
f 35/35/35 37/37/37 64/64/64 63/63/63 
f 37/37/37 39/39/39 65/65/65 64/64/64 
f 39/39/39 17/17/17 54/54/54 65/65/65 
f 15/15/15 14/14/14 66/66/66 67/67/67 
f 14/14/14 38/38/38 68/68/68 66/66/66 
f 38/38/38 36/36/36 69/69/69 68/68/68 
f 36/36/36 34/34/34 70/70/70 69/69/69 
f 34/34/34 32/32/32 71/71/71 70/70/70 
f 32/32/32 30/30/30 72/72/72 71/71/71 
f 30/30/30 28/28/28 73/73/73 72/72/72 
f 28/28/28 26/26/26 74/74/74 73/73/73 
f 26/26/26 24/24/24 75/75/75 74/74/74 
f 24/24/24 22/22/22 76/76/76 75/75/75 
f 22/22/22 20/20/20 77/77/77 76/76/76 
f 20/20/20 18/18/18 78/78/78 77/77/77 
f 18/18/18 15/15/15 67/67/67 78/78/78 
f 54/54/54 53/53/53 79/79/79 80/80/80 
f 53/53/53 55/55/55 81/81/81 79/79/79 
f 55/55/55 56/56/56 82/82/82 81/81/81 
f 56/56/56 57/57/57 83/83/83 82/82/82 
f 57/57/57 58/58/58 84/84/84 83/83/83 
f 58/58/58 59/59/59 85/85/85 84/84/84 
f 59/59/59 60/60/60 86/86/86 85/85/85 
f 60/60/60 61/61/61 87/87/87 86/86/86 
f 61/61/61 62/62/62 88/88/88 87/87/87 
f 62/62/62 63/63/63 89/89/89 88/88/88 
f 63/63/63 64/64/64 90/90/90 89/89/89 
f 64/64/64 65/65/65 91/91/91 90/90/90 
f 65/65/65 54/54/54 80/80/80 91/91/91 
f 67/67/67 66/66/66 92/92/92 93/93/93 
f 66/66/66 68/68/68 94/94/94 92/92/92 
f 68/68/68 69/69/69 95/95/95 94/94/94 
f 69/69/69 70/70/70 96/96/96 95/95/95 
f 70/70/70 71/71/71 97/97/97 96/96/96 
f 71/71/71 72/72/72 98/98/98 97/97/97 
f 72/72/72 73/73/73 99/99/99 98/98/98 
f 73/73/73 74/74/74 100/100/100 99/99/99 
f 74/74/74 75/75/75 101/101/101 100/100/100 
f 75/75/75 76/76/76 102/102/102 101/101/101 
f 76/76/76 77/77/77 103/103/103 102/102/102 
f 77/77/77 78/78/78 104/104/104 103/103/103 
f 78/78/78 67/67/67 93/93/93 104/104/104 
f 80/80/80 79/79/79 105/105/105 106/106/106 
f 79/79/79 81/81/81 107/107/107 105/105/105 
f 81/81/81 82/82/82 108/108/108 107/107/107 
f 82/82/82 83/83/83 109/109/109 108/108/108 
f 83/83/83 84/84/84 110/110/110 109/109/109 
f 84/84/84 85/85/85 111/111/111 110/110/110 
f 85/85/85 86/86/86 112/112/112 111/111/111 
f 86/86/86 87/87/87 113/113/113 112/112/112 
f 87/87/87 88/88/88 114/114/114 113/113/113 
f 88/88/88 89/89/89 115/115/115 114/114/114 
f 89/89/89 90/90/90 116/116/116 115/115/115 
f 90/90/90 91/91/91 117/117/117 116/116/116 
f 91/91/91 80/80/80 106/106/106 117/117/117 
f 93/93/93 92/92/92 118/118/118 119/119/119 
f 92/92/92 94/94/94 120/120/120 118/118/118 
f 94/94/94 95/95/95 121/121/121 120/120/120 
f 95/95/95 96/96/96 122/122/122 121/121/121 
f 96/96/96 97/97/97 123/123/123 122/122/122 
f 97/97/97 98/98/98 124/124/124 123/123/123 
f 98/98/98 99/99/99 125/125/125 124/124/124 
f 99/99/99 100/100/100 126/126/126 125/125/125 
f 100/100/100 101/101/101 127/127/127 126/126/126 
f 101/101/101 102/102/102 128/128/128 127/127/127 
f 102/102/102 103/103/103 129/129/129 128/128/128 
f 103/103/103 104/104/104 130/130/130 129/129/129 
f 104/104/104 93/93/93 119/119/119 130/130/130 
f 106/106/106 105/105/105 131/131/131 132/132/132 
f 105/105/105 107/107/107 133/133/133 131/131/131 
f 107/107/107 108/108/108 134/134/134 133/133/133 
f 108/108/108 109/109/109 135/135/135 134/134/134 
f 109/109/109 110/110/110 136/136/136 135/135/135 
f 110/110/110 111/111/111 137/137/137 136/136/136 
f 111/111/111 112/112/112 138/138/138 137/137/137 
f 112/112/112 113/113/113 139/139/139 138/138/138 
f 113/113/113 114/114/114 140/140/140 139/139/139 
f 114/114/114 115/115/115 141/141/141 140/140/140 
f 115/115/115 116/116/116 142/142/142 141/141/141 
f 116/116/116 117/117/117 143/143/143 142/142/142 
f 117/117/117 106/106/106 132/132/132 143/143/143 
f 119/119/119 118/118/118 144/144/144 145/145/145 
f 118/118/118 120/120/120 146/146/146 144/144/144 
f 120/120/120 121/121/121 147/147/147 146/146/146 
f 121/121/121 122/122/122 148/148/148 147/147/147 
f 122/122/122 123/123/123 149/149/149 148/148/148 
f 123/123/123 124/124/124 150/150/150 149/149/149 
f 124/124/124 125/125/125 151/151/151 150/150/150 
f 125/125/125 126/126/126 152/152/152 151/151/151 
f 126/126/126 127/127/127 153/153/153 152/152/152 
f 127/127/127 128/128/128 154/154/154 153/153/153 
f 128/128/128 129/129/129 155/155/155 154/154/154 
f 129/129/129 130/130/130 156/156/156 155/155/155 
f 130/130/130 119/119/119 145/145/145 156/156/156 
f 132/132/132 131/131/131 42/42/42 41/41/41 
f 131/131/131 133/133/133 43/43/43 42/42/42 
f 133/133/133 134/134/134 44/44/44 43/43/43 
f 134/134/134 135/135/135 45/45/45 44/44/44 
f 135/135/135 136/136/136 46/46/46 45/45/45 
f 136/136/136 137/137/137 47/47/47 46/46/46 
f 137/137/137 138/138/138 48/48/48 47/47/47 
f 138/138/138 139/139/139 49/49/49 48/48/48 
f 139/139/139 140/140/140 50/50/50 49/49/49 
f 140/140/140 141/141/141 51/51/51 50/50/50 
f 141/141/141 142/142/142 52/52/52 51/51/51 
f 142/142/142 143/143/143 40/40/40 52/52/52 
f 143/143/143 132/132/132 41/41/41 40/40/40 
f 145/145/145 144/144/144 13/13/13 12/12/12 
f 144/144/144 146/146/146 1/1/1 13/13/13 
f 146/146/146 147/147/147 2/2/2 1/1/1 
f 147/147/147 148/148/148 3/3/3 2/2/2 
f 148/148/148 149/149/149 4/4/4 3/3/3 
f 149/149/149 150/150/150 5/5/5 4/4/4 
f 150/150/150 151/151/151 6/6/6 5/5/5 
f 151/151/151 152/152/152 7/7/7 6/6/6 
f 152/152/152 153/153/153 8/8/8 7/7/7 
f 153/153/153 154/154/154 9/9/9 8/8/8 
f 154/154/154 155/155/155 10/10/10 9/9/9 
f 155/155/155 156/156/156 11/11/11 10/10/10 
f 156/156/156 145/145/145 12/12/12 11/11/11 
# 145 polygons

