# 3ds Max Wavefront OBJ Exporter v0.97b - (c)2007 guruware
# File Created: 09.04.2019 11:36:26

mtllib dubloon_simple.mtl

#
# object Cylinder003
#

v  -3.0619 7.9877 -0.5686
v  -6.3428 6.8370 -0.5686
v  -9.6129 7.9839 -0.5686
v  -10.7464 11.2717 -0.5686
v  -9.6129 14.5594 -0.5686
v  -6.3428 15.7060 -0.5686
v  -3.0618 14.5555 -0.5686
v  -1.9134 11.2717 -0.5686
v  4.5660 11.2717 -0.0000
v  1.7392 19.3551 0.0000
v  1.7392 19.3551 1.6289
v  4.5660 11.2717 1.6289
v  -6.3441 22.1895 0.0000
v  -6.3441 22.1895 1.6289
v  -14.4275 19.3551 0.0000
v  -14.4275 19.3551 1.6289
v  -17.2143 11.2717 -0.0000
v  -17.2143 11.2717 1.6289
v  -14.4275 3.1884 -0.0000
v  -14.4275 3.1884 1.6289
v  -6.3441 0.3534 -0.0000
v  -6.3441 0.3534 1.6289
v  1.7392 3.1884 -0.0000
v  1.7392 3.1884 1.6289
v  -3.0619 7.9877 2.1975
v  -1.9134 11.2717 2.1975
v  -3.0618 14.5555 2.1975
v  -6.3428 15.7060 2.1975
v  -9.6129 14.5594 2.1975
v  -10.7464 11.2717 2.1975
v  -9.6129 7.9839 2.1975
v  -6.3428 6.8370 2.1975
v  3.2918 11.2717 -0.6014
v  0.7949 18.4116 -0.6014
v  0.7949 4.1318 -0.6014
v  -6.3441 1.6280 -0.6014
v  -13.4801 4.1307 -0.6014
v  -15.9420 11.2717 -0.6014
v  -13.4801 18.4127 -0.6014
v  -6.3441 20.9149 -0.6014
v  0.7949 18.4116 2.2303
v  3.2918 11.2717 2.2303
v  -6.3441 20.9149 2.2303
v  -13.4801 18.4127 2.2303
v  -15.9420 11.2717 2.2303
v  -13.4801 4.1307 2.2303
v  -6.3441 1.6280 2.2303
v  0.7949 4.1318 2.2303
v  -0.1493 17.4681 1.7793
v  2.0176 11.2717 1.7793
v  -6.3441 19.6403 1.7793
v  -12.5327 17.4703 1.7793
v  -14.6697 11.2717 1.7793
v  -12.5327 5.0731 1.7793
v  -6.3441 2.9026 1.7793
v  -0.1494 5.0753 1.7793
v  2.0176 11.2717 -0.1504
v  -0.1493 17.4681 -0.1504
v  -0.1494 5.0753 -0.1504
v  -6.3441 2.9026 -0.1504
v  -12.5327 5.0731 -0.1504
v  -14.6697 11.2717 -0.1504
v  -12.5327 17.4703 -0.1504
v  -6.3441 19.6403 -0.1504
v  -0.8711 11.2717 -0.1997
v  -2.2894 15.3273 -0.1997
v  -2.2894 7.2160 -0.1997
v  -6.3428 5.7944 -0.1997
v  -10.3878 7.2131 -0.1997
v  -11.7871 11.2717 -0.1997
v  -10.3879 15.3302 -0.1997
v  -6.3428 16.7486 -0.1997
v  -2.2894 15.3273 1.8286
v  -0.8711 11.2717 1.8286
v  -6.3428 16.7486 1.8286
v  -10.3879 15.3302 1.8286
v  -11.7871 11.2717 1.8286
v  -10.3878 7.2131 1.8286
v  -6.3428 5.7944 1.8286
v  -2.2894 7.2160 1.8286
# 80 vertices

vn 0.1461 -0.1459 -0.9784
vn -0.0000 -0.2040 -0.9790
vn -0.1464 -0.1456 -0.9784
vn -0.2038 0.0000 -0.9790
vn -0.1464 0.1456 -0.9784
vn 0.0000 0.2040 -0.9790
vn 0.1461 0.1459 -0.9784
vn 0.2040 0.0000 -0.9790
vn 0.8718 0.0000 -0.4899
vn 0.6192 0.6186 -0.4837
vn 0.6192 0.6186 0.4837
vn 0.8718 0.0000 0.4899
vn -0.0000 0.8718 -0.4898
vn -0.0000 0.8718 0.4898
vn -0.6206 0.6173 -0.4836
vn -0.6206 0.6173 0.4836
vn -0.8716 -0.0000 -0.4902
vn -0.8716 -0.0000 0.4902
vn -0.6206 -0.6173 -0.4836
vn -0.6206 -0.6173 0.4836
vn -0.0000 -0.8718 -0.4898
vn -0.0000 -0.8718 0.4898
vn 0.6192 -0.6186 -0.4837
vn 0.6192 -0.6186 0.4837
vn 0.1461 -0.1459 0.9785
vn 0.2040 -0.0000 0.9790
vn 0.1461 0.1459 0.9784
vn 0.0000 0.2040 0.9790
vn -0.1464 0.1456 0.9784
vn -0.2038 -0.0000 0.9790
vn -0.1464 -0.1456 0.9784
vn -0.0000 -0.2040 0.9790
vn 0.1306 0.0000 -0.9914
vn 0.1067 0.1066 -0.9886
vn 0.1067 -0.1066 -0.9886
vn 0.0000 -0.1307 -0.9914
vn -0.1072 -0.1066 -0.9885
vn -0.1297 0.0000 -0.9916
vn -0.1072 0.1066 -0.9885
vn 0.0000 0.1307 -0.9914
vn 0.1067 0.1066 0.9886
vn 0.1306 -0.0000 0.9914
vn 0.0000 0.1307 0.9914
vn -0.1072 0.1066 0.9885
vn -0.1297 -0.0000 0.9916
vn -0.1072 -0.1066 0.9885
vn 0.0000 -0.1307 0.9914
vn 0.1067 -0.1066 0.9886
vn -0.1420 -0.1419 0.9796
vn -0.1974 -0.0000 0.9803
vn -0.0000 -0.1975 0.9803
vn 0.1424 -0.1416 0.9796
vn 0.1972 -0.0000 0.9804
vn 0.1424 0.1416 0.9796
vn -0.0000 0.1975 0.9803
vn -0.1420 0.1419 0.9796
vn -0.1974 0.0000 -0.9803
vn -0.1420 -0.1419 -0.9796
vn -0.1420 0.1419 -0.9796
vn -0.0000 0.1975 -0.9803
vn 0.1424 0.1416 -0.9796
vn 0.1972 0.0000 -0.9804
vn 0.1424 -0.1416 -0.9796
vn -0.0000 -0.1975 -0.9803
vn 0.1439 0.0000 -0.9896
vn 0.0898 0.0897 -0.9919
vn 0.0898 -0.0897 -0.9919
vn 0.0000 -0.1438 -0.9896
vn -0.0898 -0.0893 -0.9920
vn -0.1446 0.0000 -0.9895
vn -0.0898 0.0893 -0.9920
vn 0.0000 0.1438 -0.9896
vn 0.0898 0.0897 0.9919
vn 0.1439 -0.0000 0.9896
vn 0.0000 0.1438 0.9896
vn -0.0898 0.0893 0.9920
vn -0.1446 -0.0000 0.9895
vn -0.0898 -0.0893 0.9920
vn 0.0000 -0.1438 0.9896
vn 0.0898 -0.0897 0.9919
# 80 vertex normals

vt 0.6250 0.0000 1.0000
vt 0.5000 0.0000 1.0000
vt 0.3750 0.0000 1.0000
vt 0.2500 0.0000 1.0000
vt 0.1250 0.0000 1.0000
vt 0.0000 0.0000 1.0000
vt -0.1250 0.0000 1.0000
vt 0.1161 0.0000 0.4142
vt 0.7500 0.0000 1.0000
vt 0.8750 0.0000 1.0000
vt 0.8750 1.0000 1.0000
vt 0.7500 1.0000 1.0000
vt 0.0000 1.0000 1.0000
vt -0.1250 1.0000 1.0000
vt 0.1250 1.0000 1.0000
vt 0.2500 1.0000 1.0000
vt 0.3750 1.0000 1.0000
vt 0.5000 1.0000 1.0000
vt 0.6250 1.0000 1.0000
vt 0.7803 1.0000 0.4142
vt 0.5214 1.0000 -0.4142
vt 0.2500 1.0000 -1.0000
vt 0.1250 1.0000 -1.0000
vt 0.2197 1.0000 -0.4142
# 24 texture coords

o Cylinder003
g Cylinder003
usemtl 01___Default
s 1
f 1/1/1 2/2/2 3/3/3 4/4/4 5/5/5 6/6/6 7/7/7 8/8/8 
s 8
f 9/9/9 10/10/10 11/11/11 12/12/12 
f 10/7/10 13/6/13 14/13/14 11/14/11 
f 13/6/13 15/5/15 16/15/16 14/13/14 
f 15/5/15 17/4/17 18/16/18 16/15/16 
f 17/4/17 19/3/19 20/17/20 18/16/18 
f 19/3/19 21/2/21 22/18/22 20/17/20 
f 21/2/21 23/1/23 24/19/24 22/18/22 
f 23/1/23 9/9/9 12/12/12 24/19/24 
s 1
f 25/19/25 26/12/26 27/11/27 28/20/28 29/21/29 30/22/30 31/23/31 32/24/32 
s off
f 10/7/10 9/8/9 33/8/33 34/7/34 
f 9/8/9 23/1/23 35/1/35 33/8/33 
f 23/1/23 21/2/21 36/2/36 35/1/35 
f 21/2/21 19/3/19 37/3/37 36/2/36 
f 19/3/19 17/4/17 38/4/38 37/3/37 
f 17/4/17 15/5/15 39/5/39 38/4/38 
f 15/5/15 13/6/13 40/6/40 39/5/39 
f 13/6/13 10/7/10 34/7/34 40/6/40 
f 12/12/12 11/11/11 41/11/41 42/12/42 
f 11/11/11 14/20/14 43/20/43 41/11/41 
f 14/20/14 16/21/16 44/21/44 43/20/43 
f 16/21/16 18/22/18 45/22/45 44/21/44 
f 18/22/18 20/23/20 46/23/46 45/22/45 
f 20/23/20 22/24/22 47/24/47 46/23/46 
f 22/24/22 24/19/24 48/19/48 47/24/47 
f 24/19/24 12/12/12 42/12/42 48/19/48 
f 42/12/42 41/11/41 49/11/49 50/12/50 
f 41/11/41 43/20/43 51/20/51 49/11/49 
f 43/20/43 44/21/44 52/21/52 51/20/51 
f 44/21/44 45/22/45 53/22/53 52/21/52 
f 45/22/45 46/23/46 54/23/54 53/22/53 
f 46/23/46 47/24/47 55/24/55 54/23/54 
f 47/24/47 48/19/48 56/19/56 55/24/55 
f 48/19/48 42/12/42 50/12/50 56/19/56 
f 34/7/34 33/8/33 57/8/57 58/7/58 
f 33/8/33 35/1/35 59/1/59 57/8/57 
f 35/1/35 36/2/36 60/2/60 59/1/59 
f 36/2/36 37/3/37 61/3/61 60/2/60 
f 37/3/37 38/4/38 62/4/62 61/3/61 
f 38/4/38 39/5/39 63/5/63 62/4/62 
f 39/5/39 40/6/40 64/6/64 63/5/63 
f 40/6/40 34/7/34 58/7/58 64/6/64 
f 58/7/58 57/8/57 65/8/65 66/7/66 
f 57/8/57 59/1/59 67/1/67 65/8/65 
f 59/1/59 60/2/60 68/2/68 67/1/67 
f 60/2/60 61/3/61 69/3/69 68/2/68 
f 61/3/61 62/4/62 70/4/70 69/3/69 
f 62/4/62 63/5/63 71/5/71 70/4/70 
f 63/5/63 64/6/64 72/6/72 71/5/71 
f 64/6/64 58/7/58 66/7/66 72/6/72 
f 50/12/50 49/11/49 73/11/73 74/12/74 
f 49/11/49 51/20/51 75/20/75 73/11/73 
f 51/20/51 52/21/52 76/21/76 75/20/75 
f 52/21/52 53/22/53 77/22/77 76/21/76 
f 53/22/53 54/23/54 78/23/78 77/22/77 
f 54/23/54 55/24/55 79/24/79 78/23/78 
f 55/24/55 56/19/56 80/19/80 79/24/79 
f 56/19/56 50/12/50 74/12/74 80/19/80 
f 74/12/74 73/11/73 27/11/27 26/12/26 
f 73/11/73 75/20/75 28/20/28 27/11/27 
f 75/20/75 76/21/76 29/21/29 28/20/28 
f 76/21/76 77/22/77 30/22/30 29/21/29 
f 77/22/77 78/23/78 31/23/31 30/22/30 
f 78/23/78 79/24/79 32/24/32 31/23/31 
f 79/24/79 80/19/80 25/19/25 32/24/32 
f 80/19/80 74/12/74 26/12/26 25/19/25 
f 66/7/66 65/8/65 8/8/8 7/7/7 
f 65/8/65 67/1/67 1/1/1 8/8/8 
f 67/1/67 68/2/68 2/2/2 1/1/1 
f 68/2/68 69/3/69 3/3/3 2/2/2 
f 69/3/69 70/4/70 4/4/4 3/3/3 
f 70/4/70 71/5/71 5/5/5 4/4/4 
f 71/5/71 72/6/72 6/6/6 5/5/5 
f 72/6/72 66/7/66 7/7/7 6/6/6 
# 74 polygons

